<svg xmlns="http://www.w3.org/2000/svg" xmlns:xlink="http://www.w3.org/1999/xlink" width="500" zoomAndPan="magnify" viewBox="0 0 375 374.999991" height="500" preserveAspectRatio="xMidYMid meet" version="1.0"><defs><g/><clipPath id="5cffc67faf"><path d="M 80 142 L 118.992188 142 L 118.992188 180 L 80 180 Z M 80 142 " clip-rule="nonzero"/></clipPath><clipPath id="beac1e6ac2"><path d="M 80 141.761719 L 118.992188 141.761719 L 118.992188 180 L 80 180 Z M 80 141.761719 " clip-rule="nonzero"/></clipPath></defs><rect x="-37.5" width="450" fill="#ffffff" y="-37.499999" height="449.999989" fill-opacity="1"/><rect x="-37.5" width="450" fill="#000000" y="-37.499999" height="449.999989" fill-opacity="1"/><g clip-path="url(#5cffc67faf)"><path fill="#ff4f28" d="M 118.039062 154.144531 C 118.015625 154.101562 117.980469 154.066406 117.953125 154.023438 C 117.378906 153.292969 116.414062 152.890625 115.496094 152.996094 C 114.488281 153.109375 113.738281 153.605469 113.339844 153.890625 C 113.339844 153.890625 110.875 155.644531 106.839844 157.324219 C 106.152344 157.609375 106.039062 157.496094 106.015625 157.464844 C 105.988281 157.429688 105.980469 157.375 106.003906 157.304688 C 106.5 155.589844 107.042969 153.875 107.363281 152.125 C 107.753906 150.183594 108 148.214844 108.09375 146.238281 C 108.148438 145.234375 108.140625 144.171875 107.609375 143.328125 C 106.78125 142.003906 104.664062 141.761719 103.550781 142.859375 C 102.851562 143.546875 102.601562 144.558594 102.390625 145.515625 C 102.121094 146.734375 101.867188 147.960938 101.640625 149.191406 C 101.527344 149.808594 101.441406 150.433594 101.363281 151.0625 C 101.257812 151.890625 101.214844 152.429688 101.007812 152.472656 C 100.929688 152.492188 100.789062 152.464844 100.5625 152.074219 C 100.328125 151.671875 100.101562 151.269531 99.855469 150.878906 C 99.414062 150.148438 98.953125 149.433594 98.464844 148.738281 C 97.496094 147.335938 96.433594 145.992188 95.285156 144.722656 C 94.605469 143.964844 93.855469 143.214844 92.90625 142.867188 C 92.140625 142.589844 91.21875 142.640625 90.554688 143.136719 C 89.851562 143.652344 89.242188 144.09375 89.3125 145.078125 C 89.355469 145.6875 89.632812 146.265625 89.910156 146.8125 C 90.425781 147.796875 90.992188 148.761719 91.601562 149.695312 C 91.609375 149.710938 91.992188 150.269531 92.742188 151.375 C 93.289062 152.175781 93.742188 152.847656 93.664062 152.910156 C 93.628906 152.933594 93.542969 152.804688 93.273438 152.671875 C 93.011719 152.550781 92.757812 152.429688 92.5 152.324219 C 91.976562 152.117188 91.445312 151.925781 90.90625 151.75 C 89.832031 151.394531 88.738281 151.105469 87.628906 150.878906 C 86.949219 150.738281 86.273438 150.625 85.59375 150.539062 C 84.773438 150.433594 83.910156 150.367188 83.144531 150.671875 C 82.273438 151.019531 81.613281 151.855469 81.472656 152.785156 C 81.34375 153.71875 81.734375 154.703125 82.476562 155.285156 C 83.058594 155.738281 83.796875 155.9375 84.511719 156.128906 C 86.976562 156.808594 89.390625 157.65625 91.742188 158.671875 C 91.53125 158.585938 90.652344 159.039062 90.425781 159.117188 C 89.945312 159.292969 89.476562 159.472656 89.007812 159.667969 C 88.066406 160.050781 87.144531 160.476562 86.246094 160.9375 C 84.566406 161.800781 82.554688 162.792969 81.300781 164.246094 C 80.386719 165.316406 80.203125 166.886719 81.140625 168.007812 C 81.753906 168.730469 82.746094 169.113281 83.675781 168.976562 C 84.496094 168.855469 85.21875 168.375 85.921875 167.9375 C 87.71875 166.824219 89.625 165.894531 91.609375 165.160156 C 92.273438 164.917969 92.890625 164.421875 93.125 164.640625 C 93.371094 164.863281 92.976562 165.648438 92.839844 165.945312 C 91.078125 169.601562 90.800781 174.375 90.757812 174.835938 C 90.617188 176.203125 90.601562 177.726562 91.488281 178.773438 C 92.621094 180.105469 95.078125 179.886719 95.957031 178.371094 C 96.332031 177.726562 96.425781 176.960938 96.53125 176.222656 C 96.863281 173.886719 97.167969 172.71875 97.167969 172.71875 C 97.652344 169.792969 97.777344 169.28125 98.011719 169.261719 C 98.246094 169.238281 98.359375 169.742188 99.1875 171.257812 C 99.394531 171.648438 99.839844 172.449219 100.464844 173.417969 C 101.363281 174.808594 102.355469 176.125 103.453125 177.371094 C 104.175781 178.1875 105.011719 179.015625 106.09375 179.21875 C 107.667969 179.496094 109.304688 178.015625 109.183594 176.421875 C 109.132812 175.792969 108.976562 175.339844 108.511719 174.539062 C 107.574219 172.910156 105.054688 169.585938 104.96875 169.183594 C 104.96875 169.183594 104.96875 169.175781 104.96875 169.167969 C 105.039062 169.011719 106.867188 169.828125 109 170.492188 C 109.445312 170.628906 111.117188 171.066406 113.292969 171.414062 C 114.113281 171.542969 114.984375 171.640625 115.769531 171.351562 C 117.308594 170.777344 117.9375 168.566406 116.910156 167.277344 C 116.378906 166.605469 115.734375 166.25 114.609375 165.875 C 109.933594 164.332031 107.582031 164.125 107.539062 163.550781 C 107.503906 163.113281 108.84375 162.941406 111.859375 161.539062 C 112.03125 161.460938 113.894531 160.503906 116.140625 159.023438 C 117.066406 158.414062 118.023438 157.699219 118.398438 156.652344 C 118.675781 155.835938 118.546875 154.867188 118.039062 154.144531 Z M 118.039062 154.144531 " fill-opacity="1" fill-rule="nonzero"/></g><g clip-path="url(#beac1e6ac2)"><path fill="#ff4f28" d="M 93.535156 179.871094 C 92.65625 179.871094 91.84375 179.523438 91.324219 178.910156 C 90.382812 177.796875 90.398438 176.210938 90.539062 174.808594 C 90.539062 174.785156 90.546875 174.742188 90.546875 174.671875 C 90.828125 171.203125 91.566406 168.070312 92.636719 165.839844 L 92.664062 165.789062 C 93.011719 165.046875 93.003906 164.847656 92.976562 164.785156 C 92.882812 164.769531 92.578125 164.925781 92.367188 165.039062 C 92.160156 165.144531 91.921875 165.265625 91.6875 165.351562 C 89.71875 166.074219 87.820312 167.007812 86.046875 168.113281 L 85.886719 168.210938 C 85.21875 168.628906 84.519531 169.0625 83.710938 169.175781 C 82.710938 169.324219 81.640625 168.914062 80.976562 168.132812 C 80.019531 166.980469 80.078125 165.316406 81.132812 164.089844 C 82.363281 162.671875 84.25 161.695312 85.921875 160.84375 L 86.140625 160.730469 C 87.054688 160.257812 87.988281 159.832031 88.917969 159.449219 C 89.425781 159.25 89.886719 159.066406 90.347656 158.898438 C 90.398438 158.882812 90.503906 158.839844 90.617188 158.785156 C 90.773438 158.71875 90.921875 158.65625 91.042969 158.605469 C 88.917969 157.714844 86.707031 156.949219 84.453125 156.332031 C 83.753906 156.140625 82.960938 155.929688 82.335938 155.453125 C 81.535156 154.824219 81.109375 153.761719 81.253906 152.75 C 81.402344 151.742188 82.117188 150.84375 83.058594 150.460938 C 83.886719 150.128906 84.808594 150.21875 85.609375 150.3125 C 86.289062 150.398438 86.984375 150.511719 87.664062 150.652344 C 88.816406 150.886719 89.921875 151.183594 90.964844 151.53125 C 91.503906 151.707031 92.046875 151.898438 92.566406 152.117188 C 92.757812 152.195312 92.953125 152.28125 93.144531 152.367188 C 92.960938 152.082031 92.726562 151.742188 92.550781 151.488281 C 92.148438 150.898438 91.855469 150.460938 91.664062 150.183594 C 91.472656 149.894531 91.417969 149.824219 91.402344 149.800781 C 90.792969 148.867188 90.21875 147.890625 89.703125 146.898438 C 89.398438 146.296875 89.121094 145.714844 89.074219 145.078125 C 88.996094 143.972656 89.6875 143.476562 90.410156 142.945312 C 91.085938 142.441406 92.0625 142.320312 92.960938 142.648438 C 93.988281 143.023438 94.769531 143.835938 95.425781 144.566406 C 96.574219 145.84375 97.652344 147.203125 98.621094 148.605469 C 99.089844 149.277344 99.550781 149.980469 100.023438 150.757812 C 100.195312 151.035156 100.371094 151.332031 100.535156 151.621094 C 100.597656 151.734375 100.667969 151.847656 100.726562 151.960938 C 100.824219 152.125 100.894531 152.203125 100.929688 152.230469 C 100.996094 152.082031 101.050781 151.652344 101.09375 151.269531 L 101.121094 151.027344 C 101.214844 150.261719 101.304688 149.675781 101.398438 149.144531 C 101.617188 147.980469 101.867188 146.742188 102.148438 145.460938 C 102.375 144.417969 102.644531 143.414062 103.367188 142.703125 C 103.941406 142.136719 104.804688 141.867188 105.691406 141.96875 C 106.582031 142.074219 107.335938 142.527344 107.765625 143.214844 C 108.339844 144.140625 108.339844 145.261719 108.285156 146.253906 C 108.191406 148.242188 107.949219 150.234375 107.554688 152.175781 C 107.285156 153.65625 106.851562 155.128906 106.433594 156.546875 C 106.363281 156.800781 106.285156 157.042969 106.214844 157.296875 C 106.300781 157.28125 106.46875 157.246094 106.738281 157.132812 C 110.699219 155.476562 113.164062 153.746094 113.191406 153.726562 C 113.667969 153.378906 114.433594 152.910156 115.453125 152.796875 C 116.445312 152.683594 117.484375 153.117188 118.101562 153.902344 L 118.117188 153.925781 C 118.128906 153.945312 118.136719 153.953125 118.144531 153.972656 C 118.164062 153.988281 118.179688 154.015625 118.199219 154.050781 C 118.738281 154.824219 118.886719 155.851562 118.582031 156.75 C 118.179688 157.882812 117.160156 158.621094 116.238281 159.230469 C 113.964844 160.730469 112.109375 161.679688 111.917969 161.765625 C 110.621094 162.367188 109.644531 162.742188 108.929688 163.011719 C 108.347656 163.238281 107.800781 163.445312 107.730469 163.558594 C 107.800781 163.75 108.886719 164.039062 109.949219 164.316406 C 111.101562 164.621094 112.667969 165.039062 114.652344 165.691406 C 115.890625 166.101562 116.515625 166.492188 117.054688 167.164062 C 117.578125 167.816406 117.746094 168.75 117.492188 169.65625 C 117.238281 170.570312 116.613281 171.285156 115.820312 171.578125 C 114.964844 171.894531 114.042969 171.78125 113.234375 171.648438 C 110.96875 171.285156 109.316406 170.847656 108.90625 170.71875 C 107.949219 170.421875 107.058594 170.089844 106.335938 169.828125 C 105.960938 169.691406 105.585938 169.550781 105.316406 169.464844 C 105.578125 169.882812 106.082031 170.613281 106.554688 171.273438 C 107.320312 172.371094 108.191406 173.617188 108.671875 174.445312 C 109.140625 175.261719 109.316406 175.742188 109.367188 176.414062 C 109.429688 177.230469 109.0625 178.074219 108.390625 178.695312 C 107.710938 179.304688 106.832031 179.589844 106.023438 179.441406 C 104.898438 179.234375 104.027344 178.398438 103.261719 177.527344 C 102.164062 176.28125 101.15625 174.941406 100.257812 173.546875 C 99.621094 172.570312 99.179688 171.761719 98.96875 171.371094 C 98.671875 170.832031 98.464844 170.414062 98.316406 170.109375 C 98.183594 169.847656 98.070312 169.621094 98.003906 169.523438 C 97.855469 169.8125 97.636719 171.066406 97.347656 172.765625 L 97.347656 172.78125 C 97.347656 172.789062 97.042969 173.964844 96.722656 176.257812 L 96.714844 176.34375 C 96.609375 177.074219 96.503906 177.832031 96.121094 178.484375 C 95.675781 179.261719 94.804688 179.773438 93.8125 179.859375 C 93.734375 179.871094 93.628906 179.871094 93.535156 179.871094 Z M 92.976562 164.367188 C 93.089844 164.367188 93.1875 164.402344 93.273438 164.480469 C 93.597656 164.777344 93.335938 165.414062 93.054688 165.988281 L 93.03125 166.039062 C 91.976562 168.226562 91.253906 171.308594 90.984375 174.714844 C 90.972656 174.777344 90.972656 174.828125 90.972656 174.855469 C 90.84375 176.167969 90.816406 177.640625 91.652344 178.625 C 92.140625 179.199219 92.941406 179.496094 93.796875 179.417969 C 94.648438 179.339844 95.390625 178.902344 95.765625 178.257812 C 96.105469 177.675781 96.199219 176.960938 96.296875 176.273438 L 96.304688 176.1875 C 96.617188 173.949219 96.914062 172.796875 96.941406 172.667969 C 97.175781 171.273438 97.332031 170.359375 97.460938 169.847656 C 97.566406 169.417969 97.679688 169.0625 97.984375 169.046875 C 98.28125 169.011719 98.410156 169.273438 98.726562 169.90625 C 98.875 170.210938 99.082031 170.621094 99.371094 171.152344 C 99.578125 171.542969 100.015625 172.335938 100.640625 173.296875 C 101.527344 174.671875 102.53125 175.996094 103.609375 177.222656 C 104.324219 178.03125 105.132812 178.816406 106.128906 179 C 106.796875 179.121094 107.546875 178.878906 108.128906 178.355469 C 108.703125 177.832031 109.019531 177.117188 108.964844 176.4375 C 108.914062 175.839844 108.765625 175.421875 108.320312 174.652344 C 107.851562 173.84375 106.988281 172.605469 106.230469 171.519531 C 105.222656 170.074219 104.804688 169.453125 104.761719 169.238281 L 104.75 169.210938 L 104.75 169.125 L 104.769531 169.082031 C 104.875 168.84375 105.167969 168.941406 105.464844 169.027344 C 105.726562 169.113281 106.09375 169.246094 106.519531 169.402344 C 107.234375 169.664062 108.113281 169.984375 109.0625 170.28125 C 109.558594 170.4375 111.257812 170.867188 113.328125 171.195312 C 114.078125 171.316406 114.941406 171.421875 115.6875 171.144531 C 116.351562 170.898438 116.875 170.28125 117.089844 169.507812 C 117.300781 168.742188 117.167969 167.957031 116.734375 167.40625 C 116.253906 166.808594 115.679688 166.457031 114.539062 166.074219 C 112.5625 165.421875 111.003906 165.011719 109.863281 164.707031 C 108.09375 164.238281 107.355469 164.046875 107.320312 163.558594 C 107.285156 163.148438 107.730469 162.976562 108.800781 162.574219 C 109.507812 162.304688 110.480469 161.9375 111.761719 161.339844 C 111.9375 161.261719 113.808594 160.292969 116.019531 158.839844 C 116.882812 158.273438 117.832031 157.574219 118.1875 156.574219 C 118.449219 155.816406 118.320312 154.929688 117.859375 154.265625 L 117.847656 154.257812 C 117.839844 154.242188 117.832031 154.230469 117.824219 154.214844 C 117.804688 154.195312 117.789062 154.171875 117.769531 154.144531 C 117.238281 153.484375 116.359375 153.109375 115.515625 153.203125 C 114.601562 153.308594 113.902344 153.746094 113.460938 154.058594 C 113.433594 154.074219 110.925781 155.84375 106.917969 157.515625 C 106.308594 157.769531 105.988281 157.785156 105.832031 157.585938 C 105.761719 157.488281 105.746094 157.359375 105.789062 157.226562 C 105.867188 156.957031 105.945312 156.679688 106.023438 156.410156 C 106.441406 155 106.867188 153.535156 107.136719 152.074219 C 107.53125 150.148438 107.773438 148.179688 107.867188 146.210938 C 107.921875 145.289062 107.921875 144.242188 107.417969 143.433594 C 107.058594 142.867188 106.40625 142.476562 105.65625 142.386719 C 104.90625 142.300781 104.167969 142.527344 103.6875 142.996094 C 103.054688 143.625 102.800781 144.566406 102.589844 145.550781 C 102.3125 146.820312 102.058594 148.058594 101.84375 149.214844 C 101.746094 149.746094 101.660156 150.3125 101.5625 151.078125 L 101.539062 151.324219 C 101.433594 152.152344 101.382812 152.605469 101.042969 152.683594 C 100.738281 152.75 100.511719 152.429688 100.363281 152.175781 C 100.300781 152.0625 100.230469 151.949219 100.171875 151.835938 C 100.003906 151.558594 99.839844 151.261719 99.664062 150.984375 C 99.195312 150.21875 98.742188 149.519531 98.28125 148.851562 C 97.324219 147.464844 96.261719 146.117188 95.121094 144.851562 C 94.5 144.164062 93.761719 143.398438 92.828125 143.058594 C 92.070312 142.78125 91.246094 142.875 90.6875 143.304688 C 90.007812 143.800781 89.46875 144.191406 89.527344 145.054688 C 89.574219 145.601562 89.816406 146.125 90.105469 146.699219 C 90.617188 147.675781 91.175781 148.640625 91.785156 149.5625 L 91.792969 149.574219 C 91.820312 149.609375 91.90625 149.746094 92.035156 149.929688 C 92.226562 150.207031 92.523438 150.644531 92.925781 151.234375 C 93.195312 151.628906 93.449219 152.003906 93.628906 152.289062 C 93.847656 152.628906 94.015625 152.910156 93.804688 153.066406 C 93.65625 153.179688 93.507812 153.066406 93.449219 153.023438 C 93.386719 152.976562 93.316406 152.917969 93.1875 152.855469 L 93.066406 152.796875 C 92.847656 152.691406 92.636719 152.59375 92.429688 152.507812 C 91.914062 152.296875 91.382812 152.105469 90.851562 151.941406 C 89.824219 151.601562 88.726562 151.304688 87.605469 151.078125 C 86.933594 150.941406 86.253906 150.828125 85.582031 150.738281 C 84.835938 150.644531 83.972656 150.566406 83.242188 150.851562 C 82.441406 151.175781 81.832031 151.941406 81.699219 152.796875 C 81.578125 153.65625 81.945312 154.554688 82.621094 155.09375 C 83.171875 155.519531 83.886719 155.710938 84.582031 155.894531 C 87.074219 156.582031 89.511719 157.4375 91.835938 158.445312 C 91.90625 158.507812 91.941406 158.605469 91.914062 158.691406 C 91.878906 158.796875 91.777344 158.855469 91.664062 158.847656 L 91.679688 158.855469 C 91.550781 158.839844 91.007812 159.082031 90.800781 159.167969 C 90.667969 159.230469 90.566406 159.273438 90.496094 159.300781 C 90.042969 159.464844 89.582031 159.640625 89.085938 159.847656 C 88.171875 160.222656 87.246094 160.648438 86.339844 161.113281 L 86.113281 161.226562 C 84.476562 162.0625 82.632812 163.011719 81.457031 164.367188 C 80.542969 165.441406 80.480469 166.867188 81.300781 167.851562 C 81.867188 168.523438 82.78125 168.871094 83.632812 168.742188 C 84.347656 168.636719 85.007812 168.226562 85.644531 167.824219 L 85.800781 167.730469 C 87.605469 166.605469 89.527344 165.667969 91.523438 164.933594 C 91.742188 164.855469 91.949219 164.742188 92.160156 164.640625 C 92.472656 164.507812 92.75 164.367188 92.976562 164.367188 Z M 92.976562 164.367188 " fill-opacity="1" fill-rule="nonzero"/></g><g fill="#ffffff" fill-opacity="1"><g transform="translate(118.91284, 203.603747)"><g><path d="M 16.484375 0.625 C 14.859375 0.625 13.207031 0.421875 11.53125 0.015625 C 9.851562 -0.378906 8.300781 -1.019531 6.875 -1.90625 C 5.457031 -2.800781 4.265625 -3.992188 3.296875 -5.484375 C 2.335938 -6.984375 1.757812 -8.828125 1.5625 -11.015625 L 8.171875 -11.015625 C 8.554688 -9.421875 9.175781 -8.171875 10.03125 -7.265625 C 10.894531 -6.359375 11.894531 -5.726562 13.03125 -5.375 C 14.175781 -5.019531 15.34375 -4.84375 16.53125 -4.84375 C 18.28125 -4.84375 19.742188 -5.210938 20.921875 -5.953125 C 22.109375 -6.691406 22.703125 -7.878906 22.703125 -9.515625 C 22.703125 -10.691406 22.316406 -11.609375 21.546875 -12.265625 C 20.773438 -12.921875 19.773438 -13.429688 18.546875 -13.796875 C 17.316406 -14.171875 15.976562 -14.503906 14.53125 -14.796875 C 13.132812 -15.117188 11.738281 -15.472656 10.34375 -15.859375 C 8.957031 -16.242188 7.675781 -16.773438 6.5 -17.453125 C 5.332031 -18.140625 4.398438 -19.050781 3.703125 -20.1875 C 3.015625 -21.332031 2.671875 -22.796875 2.671875 -24.578125 C 2.671875 -26.765625 3.195312 -28.59375 4.25 -30.0625 C 5.300781 -31.53125 6.726562 -32.640625 8.53125 -33.390625 C 10.34375 -34.148438 12.390625 -34.53125 14.671875 -34.53125 C 16.859375 -34.53125 18.914062 -34.144531 20.84375 -33.375 C 22.769531 -32.601562 24.398438 -31.429688 25.734375 -29.859375 C 27.066406 -28.285156 27.910156 -26.269531 28.265625 -23.8125 L 21.734375 -23.8125 C 21.316406 -25.625 20.445312 -26.953125 19.125 -27.796875 C 17.8125 -28.640625 16.28125 -29.0625 14.53125 -29.0625 C 12.925781 -29.0625 11.601562 -28.726562 10.5625 -28.0625 C 9.53125 -27.394531 9.015625 -26.410156 9.015625 -25.109375 C 9.015625 -24.066406 9.378906 -23.25 10.109375 -22.65625 C 10.835938 -22.070312 11.789062 -21.609375 12.96875 -21.265625 C 14.15625 -20.921875 15.429688 -20.585938 16.796875 -20.265625 C 18.222656 -19.960938 19.648438 -19.597656 21.078125 -19.171875 C 22.515625 -18.742188 23.847656 -18.164062 25.078125 -17.4375 C 26.304688 -16.71875 27.289062 -15.75 28.03125 -14.53125 C 28.78125 -13.3125 29.15625 -11.742188 29.15625 -9.828125 C 29.15625 -6.617188 28.039062 -4.070312 25.8125 -2.1875 C 23.59375 -0.3125 20.484375 0.625 16.484375 0.625 Z M 16.484375 0.625 "/></g></g></g><g fill="#ffffff" fill-opacity="1"><g transform="translate(148.730465, 203.603747)"><g><path d="M 14.359375 0.484375 C 11.867188 0.484375 9.664062 -0.0625 7.75 -1.15625 C 5.84375 -2.25 4.351562 -3.78125 3.28125 -5.75 C 2.21875 -7.71875 1.6875 -10.007812 1.6875 -12.625 C 1.6875 -15.132812 2.21875 -17.351562 3.28125 -19.28125 C 4.351562 -21.207031 5.835938 -22.71875 7.734375 -23.8125 C 9.628906 -24.914062 11.835938 -25.46875 14.359375 -25.46875 C 17.347656 -25.46875 19.882812 -24.695312 21.96875 -23.15625 C 24.0625 -21.613281 25.421875 -19.550781 26.046875 -16.96875 L 19.515625 -16.96875 C 18.742188 -19.375 17.023438 -20.578125 14.359375 -20.578125 C 12.429688 -20.578125 10.859375 -19.847656 9.640625 -18.390625 C 8.429688 -16.941406 7.828125 -15.019531 7.828125 -12.625 C 7.828125 -10.132812 8.429688 -8.140625 9.640625 -6.640625 C 10.859375 -5.148438 12.429688 -4.40625 14.359375 -4.40625 C 15.804688 -4.40625 16.972656 -4.757812 17.859375 -5.46875 C 18.753906 -6.175781 19.347656 -7.15625 19.640625 -8.40625 L 26.125 -8.40625 C 25.738281 -6.53125 25 -4.925781 23.90625 -3.59375 C 22.8125 -2.257812 21.441406 -1.242188 19.796875 -0.546875 C 18.148438 0.140625 16.335938 0.484375 14.359375 0.484375 Z M 14.359375 0.484375 "/></g></g></g><g fill="#ffffff" fill-opacity="1"><g transform="translate(175.215273, 203.603747)"><g><path d="M 8.75 0 L 2.75 0 L 2.75 -33.90625 L 8.75 -33.90625 L 8.75 -21.78125 C 9.757812 -23.164062 10.804688 -24.125 11.890625 -24.65625 C 12.972656 -25.195312 14.179688 -25.46875 15.515625 -25.46875 C 17.796875 -25.46875 19.523438 -25.054688 20.703125 -24.234375 C 21.890625 -23.421875 22.75 -22.4375 23.28125 -21.28125 C 23.8125 -20.1875 24.125 -19.066406 24.21875 -17.921875 C 24.3125 -16.785156 24.359375 -15.597656 24.359375 -14.359375 L 24.359375 0 L 18.359375 0 L 18.359375 -14.4375 C 18.359375 -16.875 17.957031 -18.535156 17.15625 -19.421875 C 16.445312 -20.160156 15.394531 -20.53125 14 -20.53125 C 12.28125 -20.53125 11.003906 -20.023438 10.171875 -19.015625 C 9.671875 -18.421875 9.304688 -17.632812 9.078125 -16.65625 C 8.859375 -15.6875 8.75 -14.367188 8.75 -12.703125 Z M 8.75 0 "/></g></g></g><g fill="#ffffff" fill-opacity="1"><g transform="translate(200.989072, 203.603747)"><g><path d="M 15.46875 0 L 10.53125 0 C 8.695312 0 7.265625 -0.425781 6.234375 -1.28125 C 5.210938 -2.144531 4.703125 -3.539062 4.703125 -5.46875 L 4.703125 -20.125 L 1.015625 -20.125 L 1.015625 -24.921875 L 4.703125 -24.921875 L 4.703125 -33.90625 L 10.703125 -33.90625 L 10.703125 -24.921875 L 15.515625 -24.921875 L 15.515625 -20.125 L 10.703125 -20.125 L 10.703125 -7.28125 C 10.703125 -6.632812 10.8125 -6.085938 11.03125 -5.640625 C 11.257812 -5.203125 11.832031 -4.984375 12.75 -4.984375 L 15.46875 -4.984375 Z M 15.46875 0 "/></g></g></g><g fill="#ffffff" fill-opacity="1"><g transform="translate(216.897732, 203.603747)"><g><path d="M 5.734375 -27.6875 C 4.722656 -27.6875 3.851562 -27.992188 3.125 -28.609375 C 2.40625 -29.234375 2.046875 -30.066406 2.046875 -31.109375 C 2.046875 -32.109375 2.40625 -32.925781 3.125 -33.5625 C 3.851562 -34.207031 4.722656 -34.53125 5.734375 -34.53125 C 6.742188 -34.53125 7.609375 -34.207031 8.328125 -33.5625 C 9.054688 -32.925781 9.421875 -32.109375 9.421875 -31.109375 C 9.421875 -30.066406 9.054688 -29.234375 8.328125 -28.609375 C 7.609375 -27.992188 6.742188 -27.6875 5.734375 -27.6875 Z M 8.703125 0 L 2.703125 0 L 2.703125 -24.921875 L 8.703125 -24.921875 Z M 8.703125 0 "/></g></g></g><g fill="#ffffff" fill-opacity="1"><g transform="translate(227.251693, 203.603747)"><g><path d="M 10.84375 0 L 4.796875 0 L 4.796875 -20.125 L 1.015625 -20.125 L 1.015625 -24.921875 L 4.796875 -24.921875 L 4.796875 -27.46875 C 4.796875 -29.539062 5.378906 -31.128906 6.546875 -32.234375 C 7.722656 -33.347656 9.4375 -33.90625 11.6875 -33.90625 L 15.421875 -33.90625 L 15.421875 -29.15625 L 13.109375 -29.15625 C 12.453125 -29.15625 11.910156 -28.96875 11.484375 -28.59375 C 11.054688 -28.226562 10.84375 -27.570312 10.84375 -26.625 L 10.84375 -24.921875 L 15.421875 -24.921875 L 15.421875 -20.125 L 10.84375 -20.125 Z M 10.84375 0 "/></g></g></g><g fill="#ffffff" fill-opacity="1"><g transform="translate(242.493792, 203.603747)"><g><path d="M 7.25 8.96875 L 3.109375 8.96875 L 3.109375 3.90625 L 5.828125 3.90625 C 6.597656 3.90625 7.234375 3.796875 7.734375 3.578125 C 8.234375 3.359375 8.660156 2.785156 9.015625 1.859375 L 9.6875 0.09375 L 0.484375 -24.921875 L 6.984375 -24.921875 L 12.796875 -6.625 L 18.046875 -24.921875 L 24.484375 -24.921875 L 14.796875 2.9375 C 14.023438 5.15625 13.082031 6.710938 11.96875 7.609375 C 10.863281 8.515625 9.289062 8.96875 7.25 8.96875 Z M 7.25 8.96875 "/></g></g></g></svg>